<svg xmlns="http://www.w3.org/2000/svg" viewBox="0 0 61.22 46.37"><defs><style>.a{fill:#fff;}</style></defs><path class="a" d="M7,2.58A2.58,2.58,0,1,1,9.59,5.16,2.57,2.57,0,0,1,7,2.58ZM51.64,5.16a2.58,2.58,0,1,0-2.58-2.58A2.59,2.59,0,0,0,51.64,5.16Zm-35,0A2.58,2.58,0,1,0,14,2.58,2.58,2.58,0,0,0,16.6,5.16Zm7,0A2.58,2.58,0,1,0,21,2.58,2.58,2.58,0,0,0,23.6,5.16Zm7,0A2.58,2.58,0,1,0,28,2.58,2.58,2.58,0,0,0,30.61,5.16Zm7,0A2.58,2.58,0,1,0,35,2.58,2.59,2.59,0,0,0,37.62,5.16Zm7,0a2.58,2.58,0,1,0-2.58-2.58A2.59,2.59,0,0,0,44.63,5.16Z"/><path class="a" d="M7,10.82A2.58,2.58,0,1,1,9.59,13.4,2.58,2.58,0,0,1,7,10.82ZM2.58,13.4A2.58,2.58,0,1,0,0,10.82,2.59,2.59,0,0,0,2.58,13.4Zm49.06,0a2.58,2.58,0,1,0-2.58-2.58A2.59,2.59,0,0,0,51.64,13.4Zm7,0a2.58,2.58,0,1,0-2.58-2.58A2.58,2.58,0,0,0,58.65,13.4Zm-42,0A2.58,2.58,0,1,0,14,10.82,2.58,2.58,0,0,0,16.6,13.4Zm7,0A2.58,2.58,0,1,0,21,10.82,2.58,2.58,0,0,0,23.6,13.4Zm7,0A2.58,2.58,0,1,0,28,10.82,2.58,2.58,0,0,0,30.61,13.4Zm7,0A2.58,2.58,0,1,0,35,10.82,2.59,2.59,0,0,0,37.62,13.4Zm7,0a2.58,2.58,0,1,0-2.58-2.58A2.59,2.59,0,0,0,44.63,13.4Z"/><path class="a" d="M7,19.06a2.58,2.58,0,1,1,2.58,2.58A2.58,2.58,0,0,1,7,19.06Zm44.63,2.58a2.58,2.58,0,1,0-2.58-2.58A2.58,2.58,0,0,0,51.64,21.64Zm-35,0A2.58,2.58,0,1,0,14,19.06,2.57,2.57,0,0,0,16.6,21.64Zm7,0A2.58,2.58,0,1,0,21,19.06,2.57,2.57,0,0,0,23.6,21.64Zm7,0A2.58,2.58,0,1,0,28,19.06,2.57,2.57,0,0,0,30.61,21.64Zm7,0A2.58,2.58,0,1,0,35,19.06,2.58,2.58,0,0,0,37.62,21.64Zm7,0a2.58,2.58,0,1,0-2.58-2.58A2.58,2.58,0,0,0,44.63,21.64Z"/><path class="a" d="M16.6,29.88A2.58,2.58,0,1,0,14,27.3,2.57,2.57,0,0,0,16.6,29.88Zm7,0A2.58,2.58,0,1,0,21,27.3,2.57,2.57,0,0,0,23.6,29.88Zm7,0A2.58,2.58,0,1,0,28,27.3,2.57,2.57,0,0,0,30.61,29.88Zm7,0A2.58,2.58,0,1,0,35,27.3,2.58,2.58,0,0,0,37.62,29.88Zm7,0a2.58,2.58,0,1,0-2.58-2.58A2.58,2.58,0,0,0,44.63,29.88Z"/><path class="a" d="M23.6,38.13A2.58,2.58,0,1,0,21,35.55,2.58,2.58,0,0,0,23.6,38.13Zm7,0A2.58,2.58,0,1,0,28,35.55,2.58,2.58,0,0,0,30.61,38.13Zm7,0A2.58,2.58,0,1,0,35,35.55,2.59,2.59,0,0,0,37.62,38.13Z"/><path class="a" d="M30.61,46.37A2.58,2.58,0,1,0,28,43.79,2.58,2.58,0,0,0,30.61,46.37Z"/></svg>