<svg xmlns="http://www.w3.org/2000/svg" xmlns:xlink="http://www.w3.org/1999/xlink" width="64" height="86" viewBox="0 0 64 86"><defs><path id="a" d="M807.6 12777.3c5.2 10.9 16.2 18 28.2 18 12.3 0 23.5-7.3 28.5-18.6v-25.5c-5-11.3-16.2-18.6-28.5-18.6-12 0-23.1 7-28.2 18zm28.3 21.7c-13.6 0-26-8-31.7-20.5l-.2-.4v-28.3l.2-.4a34.87 34.87 0 0 1 31.7-20.4c13.9 0 26.4 8.3 32 21.1l.2.4v27.1l-.2.3a34.96 34.96 0 0 1-32 21.1z"/><path id="b" d="M859.9 12752.9c-.8-1.7-1.8-3.4-3-4.9l-1.3-1.7v12.9a6 6 0 0 1-4.8-5.9v-11l-.3-.2c-.9-.6-1.9-1.2-3-1.7l-1.1-.5v13.5c0 3.2 1.5 6.3 4.1 8.3-2.6 2-4.1 5-4.1 8.3v18.5l1.1-.5c1-.5 2-1.1 3-1.7l.3-.2v-16.4a6 6 0 0 1 4.8-5.9v18l1.3-1.7c1.2-1.5 2.2-3.2 3-4.9l.1-22.1z"/><path id="c" d="M838.6 12737.8h-5.3c-2.3 0-4.2 2.5-4.2 5.5v41.4c0 3.1 1.9 5.5 4.2 5.5h5.3c2.3 0 4.2-2.5 4.2-5.5v-20.9H834l.1.9c.3 1.8 1.8 3.2 3.7 3.3h.6v16.8c0 .5-.1.8-.2 1.1h-4.3c-.1-.2-.2-.6-.2-1.1v-41.5c0-.5.1-.8.2-1.1h4.3c.1.2.2.6.2 1.1v12.4h4.4v-12.4c0-3.1-1.9-5.5-4.2-5.5z"/><path id="d" d="M821.5 12741.9l-.3.2v11a6 6 0 0 1-4.8 5.9v-12.8l-1.3 1.8c-1.2 1.5-2.2 3.2-3 4.9l-.1 21.9.1.2c.8 1.7 1.8 3.4 3 4.9l1.3 1.7v-18a6 6 0 0 1 4.8 5.9v16.1l.3.2c.9.6 1.9 1.2 3 1.7l1.1.5v-18.3c0-3.2-1.5-6.3-4.1-8.3 2.6-2 4.1-5 4.1-8.3v-13.4l-1.1.5c-1.1.6-2.1 1.1-3 1.7z"/><path id="e" d="M810 12807.6c.5 0 1.3.2 1.6.5 0 .3-.2.9-.7.7-.2-.1-.6-.2-.9-.2-.5 0-.8.2-.8.6 0 .4.3.6 1.3 1.1.9.5 1.4.9 1.4 1.9 0 1.3-1.2 2-2.4 2-.7 0-1.3-.2-1.5-.4-.2-.1-.3-.3-.3-.4 0-.2.2-.7.3-.7.4.2 1 .5 1.5.5s.9-.2.9-.7c0-.4-.2-.6-1.1-1.1-1.3-.6-1.5-1.3-1.5-2s.5-1.8 2.2-1.8z"/><path id="f" d="M813.9 12809.1v-1.3c.2 0 1-.1 1.3-.1.2 0 .2.1.2.6v5.7c-.2.1-1 .1-1.3.1-.2 0-.3 0-.3-.2z"/><path id="g" d="M817.8 12807.9c.2-.1 1.3-.1 1.5-.1.1 0 .2.1.3.2.3.5 1 1.7 1.6 2.6.4.7.7 1.2 1 1.7-.1-.6-.1-.9-.1-1.4v-2.8c0-.2.1-.3.2-.3h1v6.4c-.1 0-.8.2-1.2.2-.1 0-.2 0-.3-.2-.4-.6-.7-1.1-1.5-2.5-.6-1-.8-1.5-1.2-2.3.1.9.1 1.4.1 1.9v2.7c0 .2-.1.2-.3.3-.2 0-.6.1-1 0v-6z"/><path id="h" d="M830.9 12812.9c-.1.5-.2.8-.4 1-.3.2-.8.4-1.4.4-2.4 0-3.6-1.3-3.6-3.2 0-2.1 1.6-3.4 3.7-3.4.9 0 1.7.3 1.9.5 0 .5-.3.9-.7.7-.2-.1-.7-.2-1.2-.2-1.2 0-2.1.7-2.1 2.3 0 1.3.8 2.3 2.4 2.3.6-.2 1.1-.3 1.4-.4z"/><path id="i" d="M832.9 12809.1v-1.3c.3-.1.9-.1 1.4-.1h2.4c-.1.6-.2.8-.3 1-.2.1-.6.1-1 .1h-.9v1.5h2.2c-.1.9-.3 1-.7 1h-1.5v1.7c.2 0 .5.1.8 0h1.8c-.1.5-.3.8-.6 1-.1 0-.6.1-1.4.1-1 0-1.6-.1-1.9-.1l-.2-.2z"/><path id="j" d="M845.2 12808v5.8c0 .2-.1.2-.3.3h-1.2v-4.8c-.2.1-1 .2-1.3.3v-.1l.3-.8c.8-.2 2-.6 2.5-.7z"/><path id="k" d="M848.2 12813.6c.6-.1 1.4-.3 1.9-.8.6-.6.8-1.5.8-2.3 0-.9-.3-1.6-.8-1.6s-.7.5-.7 1c0 .8.5 1 .9 1 .1 0 .3 0 .4-.1 0 .2-.1.7-.3.8-.2.1-.5.2-.8.2-.9 0-1.6-.6-1.6-1.8 0-1.1.8-2.1 2.3-2.1 1.5 0 2.2 1.2 2.2 2.6 0 1-.3 2-1.1 2.8-.8.8-1.7 1-2.2 1-.2 0-.4 0-.5-.1-.3-.1-.5-.3-.5-.6z"/><path id="l" d="M856.3 12808.8c-.7 0-.8 1.4-.8 2.2 0 1.7.4 2.2.8 2.2.3 0 .8-.2.8-2.3 0-1.7-.4-2.1-.8-2.1zm.1-.9c1.9 0 2.1 2 2.1 3 0 2.1-.9 3.2-2.3 3.2-1.1 0-2.2-.7-2.2-3.1.1-1.5.7-3.1 2.4-3.1z"/><path id="m" d="M860.4 12811c.2-1.1.6-2.7.7-2.9.4 0 2.8-.1 3.1-.2-.1.4-.2.8-.5 1-.3.2-.9.3-1.9.3-.1.2-.2.7-.2 1 .6.1 1.2.2 1.5.3 1 .3 1.4.8 1.4 1.7 0 1.3-1.3 2.1-2.7 2.1-.6 0-.9-.1-1.1-.2-.2-.2-.3-.5-.3-.8l.1-.1c.2.1.7.2 1.1.2.8 0 1.5-.3 1.5-1 0-.4-.3-.6-.7-.8-.5-.1-1.4-.3-1.8-.3z"/></defs><use fill="#d8d8d8" xlink:href="#a" transform="translate(-804 -12729)"/><use fill="#d8d8d8" xlink:href="#b" transform="translate(-804 -12729)"/><use fill="#d8d8d8" xlink:href="#c" transform="translate(-804 -12729)"/><use fill="#d8d8d8" xlink:href="#d" transform="translate(-804 -12729)"/><g><use fill="#d8d8d8" xlink:href="#e" transform="translate(-804 -12729)"/><use fill="#d8d8d8" xlink:href="#f" transform="translate(-804 -12729)"/><use fill="#d8d8d8" xlink:href="#g" transform="translate(-804 -12729)"/><use fill="#d8d8d8" xlink:href="#h" transform="translate(-804 -12729)"/><use fill="#d8d8d8" xlink:href="#i" transform="translate(-804 -12729)"/><use fill="#d8d8d8" xlink:href="#j" transform="translate(-804 -12729)"/><use fill="#d8d8d8" xlink:href="#k" transform="translate(-804 -12729)"/><use fill="#d8d8d8" xlink:href="#l" transform="translate(-804 -12729)"/><use fill="#d8d8d8" xlink:href="#m" transform="translate(-804 -12729)"/></g></svg>