<svg xmlns="http://www.w3.org/2000/svg" xmlns:xlink="http://www.w3.org/1999/xlink" width="24" height="16" viewBox="0 0 24 16"><defs><path id="a" d="M41.2 22.01H20.8c-1 0-1.8.82-1.8 1.83v12.32c0 1 .8 1.82 1.8 1.82h20.4c1 0 1.8-.81 1.8-1.82V23.84c0-1.01-.8-1.83-1.8-1.83z"/><path id="b" d="M19.1 23.24h23.8A1.8 1.8 0 0 0 41.2 22H20.8a1.8 1.8 0 0 0-1.7 1.23z"/><path id="c" d="M19 28.16v-1.23h24v1.23z"/><path id="d" d="M19 25.7v-1.23h24v1.23z"/><path id="e" d="M19 30.2c0 .23.19.42.41.42H43v-1.23H19z"/><path id="f" d="M19 35.53V34.3h24v1.23z"/><path id="g" d="M42.9 36.76H19.1a1.8 1.8 0 0 0 1.7 1.23h20.4a1.8 1.8 0 0 0 1.7-1.23z"/><path id="h" d="M19 33.07v-1.23h24v1.23z"/><path id="i" d="M19.41 30.61h10.35c.23 0 .41-.19.41-.42v-7.76a.42.42 0 0 0-.41-.42H20.8c-1 0-1.8.82-1.8 1.83v6.35c0 .23.19.42.41.42z"/><path id="j" d="M20.16 22.98l.1.28h.29c.03 0 .05.05.02.07l-.24.17.1.29c0 .03-.04.06-.07.04l-.23-.17-.24.17c-.03.02-.07 0-.06-.04l.09-.29-.23-.17c-.03-.02-.02-.07.02-.07H20l.09-.28a.04.04 0 0 1 .07 0z"/><path id="k" d="M20.16 24.44l.1.28h.29c.03 0 .05.05.02.07l-.24.17.1.29c0 .03-.04.06-.07.04l-.23-.17-.24.17c-.03.02-.07 0-.06-.04l.09-.29-.23-.17c-.03-.02-.02-.07.02-.07H20l.09-.28a.04.04 0 0 1 .07 0z"/><path id="l" d="M20.16 25.9l.1.28h.29c.03 0 .05.05.02.07l-.24.17.1.29c0 .03-.04.06-.07.04l-.23-.17-.24.17c-.03.02-.07 0-.06-.04l.09-.29-.23-.17c-.03-.02-.02-.07.02-.07H20l.09-.28a.04.04 0 0 1 .07 0z"/><path id="m" d="M20.16 27.36l.1.28h.29c.03 0 .05.05.02.07l-.24.17.1.29c0 .03-.04.06-.07.04l-.23-.17-.24.17c-.03.02-.07 0-.06-.04l.09-.29-.23-.17c-.03-.02-.02-.07.02-.07H20l.09-.28a.04.04 0 0 1 .07 0z"/><path id="n" d="M20.16 28.82l.1.28h.29c.03 0 .05.05.02.07l-.24.17.1.29c0 .03-.04.06-.07.04l-.23-.17-.24.17c-.03.02-.07 0-.06-.04l.09-.29-.23-.17c-.03-.02-.02-.07.02-.07H20l.09-.28a.04.04 0 0 1 .07 0z"/><path id="o" d="M21.27 23.7l.1.28h.29c.03 0 .05.05.02.07l-.24.17.1.29c0 .03-.04.06-.07.04l-.23-.17-.24.17c-.03.02-.07 0-.06-.04l.09-.29-.23-.17c-.03-.02-.02-.07.02-.07h.29l.09-.28a.04.04 0 0 1 .07 0z"/><path id="p" d="M21.27 25.16l.1.28h.29c.03 0 .05.05.02.07l-.24.17.1.29c0 .03-.04.06-.07.04l-.23-.17L21 26c-.03.02-.07 0-.06-.04l.09-.29-.23-.17c-.03-.02-.02-.07.02-.07h.29l.09-.28a.04.04 0 0 1 .07 0z"/><path id="q" d="M21.27 26.62l.1.28h.29c.03 0 .05.05.02.07l-.24.17.1.29c0 .03-.04.06-.07.04l-.23-.17-.24.17c-.03.02-.07 0-.06-.04l.09-.29-.23-.17c-.03-.02-.02-.07.02-.07h.29l.09-.28a.04.04 0 0 1 .07 0z"/><path id="r" d="M21.27 28.08l.1.28h.29c.03 0 .05.05.02.07l-.24.17.1.29c0 .03-.04.06-.07.04l-.23-.17-.24.17c-.03.02-.07 0-.06-.04l.09-.29-.23-.17c-.03-.02-.02-.07.02-.07h.29l.09-.28a.04.04 0 0 1 .07 0z"/><path id="s" d="M22.4 22.98l.09.28h.29c.03 0 .05.05.02.07l-.24.17.1.29c0 .03-.04.06-.07.04l-.23-.17-.24.17c-.03.02-.07 0-.06-.04l.09-.29-.23-.17c-.03-.02-.02-.07.02-.07h.29l.09-.28a.04.04 0 0 1 .07 0z"/><path id="t" d="M22.4 24.44l.09.28h.29c.03 0 .05.05.02.07l-.24.17.1.29c0 .03-.04.06-.07.04l-.23-.17-.24.17c-.03.02-.07 0-.06-.04l.09-.29-.23-.17c-.03-.02-.02-.07.02-.07h.29l.09-.28a.04.04 0 0 1 .07 0z"/><path id="u" d="M22.4 25.9l.09.28h.29c.03 0 .05.05.02.07l-.24.17.1.29c0 .03-.04.06-.07.04l-.23-.17-.24.17c-.03.02-.07 0-.06-.04l.09-.29-.23-.17c-.03-.02-.02-.07.02-.07h.29l.09-.28a.04.04 0 0 1 .07 0z"/><path id="v" d="M22.4 27.36l.09.28h.29c.03 0 .05.05.02.07l-.24.17.1.29c0 .03-.04.06-.07.04l-.23-.17-.24.17c-.03.02-.07 0-.06-.04l.09-.29-.23-.17c-.03-.02-.02-.07.02-.07h.29l.09-.28a.04.04 0 0 1 .07 0z"/><path id="w" d="M22.4 28.82l.09.28h.29c.03 0 .05.05.02.07l-.24.17.1.29c0 .03-.04.06-.07.04l-.23-.17-.24.17c-.03.02-.07 0-.06-.04l.09-.29-.23-.17c-.03-.02-.02-.07.02-.07h.29l.09-.28a.04.04 0 0 1 .07 0z"/><path id="x" d="M23.5 23.7l.1.28h.29c.03 0 .05.05.02.07l-.24.17.1.29c0 .03-.04.06-.07.04l-.23-.17-.24.17c-.03.02-.07 0-.06-.04l.09-.29-.23-.17c-.03-.02-.02-.07.02-.07h.29l.09-.28a.04.04 0 0 1 .07 0z"/><path id="y" d="M23.5 25.16l.1.28h.29c.03 0 .05.05.02.07l-.24.17.1.29c0 .03-.04.06-.07.04l-.23-.17-.24.17c-.03.02-.07 0-.06-.04l.09-.29-.23-.17c-.03-.02-.02-.07.02-.07h.29l.09-.28a.04.04 0 0 1 .07 0z"/><path id="z" d="M23.5 26.62l.1.28h.29c.03 0 .05.05.02.07l-.24.17.1.29c0 .03-.04.06-.07.04l-.23-.17-.24.17c-.03.02-.07 0-.06-.04l.09-.29-.23-.17c-.03-.02-.02-.07.02-.07h.29l.09-.28a.04.04 0 0 1 .07 0z"/><path id="A" d="M23.5 28.08l.1.28h.29c.03 0 .05.05.02.07l-.24.17.1.29c0 .03-.04.06-.07.04l-.23-.17-.24.17c-.03.02-.07 0-.06-.04l.09-.29-.23-.17c-.03-.02-.02-.07.02-.07h.29l.09-.28a.04.04 0 0 1 .07 0z"/><path id="B" d="M24.62 22.98l.1.28H25c.03 0 .05.05.02.07l-.23.17.08.29c.01.03-.03.06-.06.04l-.23-.17-.24.17c-.03.02-.07 0-.06-.04l.09-.29-.23-.17c-.03-.02-.02-.07.02-.07h.29l.09-.28a.04.04 0 0 1 .07 0z"/><path id="C" d="M24.62 24.44l.1.28H25c.03 0 .05.05.02.07l-.23.17.08.29c.01.03-.03.06-.06.04l-.23-.17-.24.17c-.03.02-.07 0-.06-.04l.09-.29-.23-.17c-.03-.02-.02-.07.02-.07h.29l.09-.28a.04.04 0 0 1 .07 0z"/><path id="D" d="M24.62 25.9l.1.28H25c.03 0 .05.05.02.07l-.23.17.08.29c.01.03-.03.06-.06.04l-.23-.17-.24.17c-.03.02-.07 0-.06-.04l.09-.29-.23-.17c-.03-.02-.02-.07.02-.07h.29l.09-.28a.04.04 0 0 1 .07 0z"/><path id="E" d="M24.62 27.36l.1.28H25c.03 0 .05.05.02.07l-.23.17.08.29c.01.03-.03.06-.06.04l-.23-.17-.24.17c-.03.02-.07 0-.06-.04l.09-.29-.23-.17c-.03-.02-.02-.07.02-.07h.29l.09-.28a.04.04 0 0 1 .07 0z"/><path id="F" d="M24.62 28.82l.1.28H25c.03 0 .05.05.02.07l-.23.17.08.29c.01.03-.03.06-.06.04l-.23-.17-.24.17c-.03.02-.07 0-.06-.04l.09-.29-.23-.17c-.03-.02-.02-.07.02-.07h.29l.09-.28a.04.04 0 0 1 .07 0z"/><path id="G" d="M25.73 23.7l.1.28h.29c.03 0 .05.05.02.07l-.24.17.1.29c0 .03-.04.06-.07.04l-.23-.17-.24.17c-.03.02-.07 0-.06-.04l.09-.29-.23-.17c-.03-.02-.02-.07.02-.07h.29l.09-.28a.04.04 0 0 1 .07 0z"/><path id="H" d="M25.73 25.16l.1.28h.29c.03 0 .05.05.02.07l-.24.17.1.29c0 .03-.04.06-.07.04l-.23-.17-.24.17c-.03.02-.07 0-.06-.04l.09-.29-.23-.17c-.03-.02-.02-.07.02-.07h.29l.09-.28a.04.04 0 0 1 .07 0z"/><path id="I" d="M25.73 26.62l.1.28h.29c.03 0 .05.05.02.07l-.24.17.1.29c0 .03-.04.06-.07.04l-.23-.17-.24.17c-.03.02-.07 0-.06-.04l.09-.29-.23-.17c-.03-.02-.02-.07.02-.07h.29l.09-.28a.04.04 0 0 1 .07 0z"/><path id="J" d="M25.73 28.08l.1.28h.29c.03 0 .05.05.02.07l-.24.17.1.29c0 .03-.04.06-.07.04l-.23-.17-.24.17c-.03.02-.07 0-.06-.04l.09-.29-.23-.17c-.03-.02-.02-.07.02-.07h.29l.09-.28a.04.04 0 0 1 .07 0z"/><path id="K" d="M26.85 22.98l.1.28h.29c.03 0 .05.05.02.07l-.24.17.1.29c0 .03-.04.06-.07.04l-.23-.17-.24.17c-.03.02-.07 0-.06-.04l.09-.29-.23-.17c-.03-.02-.02-.07.02-.07h.29l.09-.28a.04.04 0 0 1 .07 0z"/><path id="L" d="M26.85 24.44l.1.28h.29c.03 0 .05.05.02.07l-.24.17.1.29c0 .03-.04.06-.07.04l-.23-.17-.24.17c-.03.02-.07 0-.06-.04l.09-.29-.23-.17c-.03-.02-.02-.07.02-.07h.29l.09-.28a.04.04 0 0 1 .07 0z"/><path id="M" d="M26.85 25.9l.1.28h.29c.03 0 .05.05.02.07l-.24.17.1.29c0 .03-.04.06-.07.04l-.23-.17-.24.17c-.03.02-.07 0-.06-.04l.09-.29-.23-.17c-.03-.02-.02-.07.02-.07h.29l.09-.28a.04.04 0 0 1 .07 0z"/><path id="N" d="M26.85 27.36l.1.28h.29c.03 0 .05.05.02.07l-.24.17.1.29c0 .03-.04.06-.07.04l-.23-.17-.24.17c-.03.02-.07 0-.06-.04l.09-.29-.23-.17c-.03-.02-.02-.07.02-.07h.29l.09-.28a.04.04 0 0 1 .07 0z"/><path id="O" d="M26.85 28.82l.1.28h.29c.03 0 .05.05.02.07l-.24.17.1.29c0 .03-.04.06-.07.04l-.23-.17-.24.17c-.03.02-.07 0-.06-.04l.09-.29-.23-.17c-.03-.02-.02-.07.02-.07h.29l.09-.28a.04.04 0 0 1 .07 0z"/><path id="P" d="M27.97 23.7l.1.28h.29c.03 0 .05.05.02.07l-.24.17.1.29c0 .03-.04.06-.07.04l-.23-.17-.24.17c-.03.02-.07 0-.06-.04l.09-.29-.23-.17c-.03-.02-.02-.07.02-.07h.29l.09-.28a.04.04 0 0 1 .07 0z"/><path id="Q" d="M27.97 25.16l.1.28h.29c.03 0 .05.05.02.07l-.24.17.1.29c0 .03-.04.06-.07.04l-.23-.17-.24.17c-.03.02-.07 0-.06-.04l.09-.29-.23-.17c-.03-.02-.02-.07.02-.07h.29l.09-.28a.04.04 0 0 1 .07 0z"/><path id="R" d="M27.97 26.62l.1.28h.29c.03 0 .05.05.02.07l-.24.17.1.29c0 .03-.04.06-.07.04l-.23-.17-.24.17c-.03.02-.07 0-.06-.04l.09-.29-.23-.17c-.03-.02-.02-.07.02-.07h.29l.09-.28a.04.04 0 0 1 .07 0z"/><path id="S" d="M27.97 28.08l.1.28h.29c.03 0 .05.05.02.07l-.24.17.1.29c0 .03-.04.06-.07.04l-.23-.17-.24.17c-.03.02-.07 0-.06-.04l.09-.29-.23-.17c-.03-.02-.02-.07.02-.07h.29l.09-.28a.04.04 0 0 1 .07 0z"/><path id="T" d="M29.08 22.98l.1.28h.29c.03 0 .05.05.02.07l-.24.17.1.29c0 .03-.04.06-.07.04l-.23-.17-.24.17c-.03.02-.07 0-.06-.04l.09-.29-.23-.17c-.03-.02-.02-.07.02-.07h.29l.09-.28a.04.04 0 0 1 .07 0z"/><path id="U" d="M29.08 24.44l.1.28h.29c.03 0 .05.05.02.07l-.24.17.1.29c0 .03-.04.06-.07.04l-.23-.17-.24.17c-.03.02-.07 0-.06-.04l.09-.29-.23-.17c-.03-.02-.02-.07.02-.07h.29l.09-.28a.04.04 0 0 1 .07 0z"/><path id="V" d="M29.08 25.9l.1.28h.29c.03 0 .05.05.02.07l-.24.17.1.29c0 .03-.04.06-.07.04l-.23-.17-.24.17c-.03.02-.07 0-.06-.04l.09-.29-.23-.17c-.03-.02-.02-.07.02-.07h.29l.09-.28a.04.04 0 0 1 .07 0z"/><path id="W" d="M29.08 27.36l.1.28h.29c.03 0 .05.05.02.07l-.24.17.1.29c0 .03-.04.06-.07.04l-.23-.17-.24.17c-.03.02-.07 0-.06-.04l.09-.29-.23-.17c-.03-.02-.02-.07.02-.07h.29l.09-.28a.04.04 0 0 1 .07 0z"/><path id="X" d="M29.08 28.82l.1.28h.29c.03 0 .05.05.02.07l-.24.17.1.29c0 .03-.04.06-.07.04l-.23-.17-.24.17c-.03.02-.07 0-.06-.04l.09-.29-.23-.17c-.03-.02-.02-.07.02-.07h.29l.09-.28a.04.04 0 0 1 .07 0z"/></defs><use fill="#f5f5f5" xlink:href="#a" transform="translate(-19 -22)"/><use fill="#ff4b55" xlink:href="#b" transform="translate(-19 -22)"/><use fill="#ff4b55" xlink:href="#c" transform="translate(-19 -22)"/><use fill="#ff4b55" xlink:href="#d" transform="translate(-19 -22)"/><use fill="#ff4b55" xlink:href="#e" transform="translate(-19 -22)"/><use fill="#ff4b55" xlink:href="#f" transform="translate(-19 -22)"/><use fill="#ff4b55" xlink:href="#g" transform="translate(-19 -22)"/><use fill="#ff4b55" xlink:href="#h" transform="translate(-19 -22)"/><g transform="translate(-19 -22)"><use fill="#41479b" xlink:href="#i"/></g><g><use fill="#f5f5f5" xlink:href="#j" transform="translate(-19 -22)"/><use fill="#f5f5f5" xlink:href="#k" transform="translate(-19 -22)"/><use fill="#f5f5f5" xlink:href="#l" transform="translate(-19 -22)"/><use fill="#f5f5f5" xlink:href="#m" transform="translate(-19 -22)"/><use fill="#f5f5f5" xlink:href="#n" transform="translate(-19 -22)"/><use fill="#f5f5f5" xlink:href="#o" transform="translate(-19 -22)"/><use fill="#f5f5f5" xlink:href="#p" transform="translate(-19 -22)"/><use fill="#f5f5f5" xlink:href="#q" transform="translate(-19 -22)"/><use fill="#f5f5f5" xlink:href="#r" transform="translate(-19 -22)"/><use fill="#f5f5f5" xlink:href="#s" transform="translate(-19 -22)"/><use fill="#f5f5f5" xlink:href="#t" transform="translate(-19 -22)"/><use fill="#f5f5f5" xlink:href="#u" transform="translate(-19 -22)"/><use fill="#f5f5f5" xlink:href="#v" transform="translate(-19 -22)"/><use fill="#f5f5f5" xlink:href="#w" transform="translate(-19 -22)"/><use fill="#f5f5f5" xlink:href="#x" transform="translate(-19 -22)"/><use fill="#f5f5f5" xlink:href="#y" transform="translate(-19 -22)"/><use fill="#f5f5f5" xlink:href="#z" transform="translate(-19 -22)"/><use fill="#f5f5f5" xlink:href="#A" transform="translate(-19 -22)"/><use fill="#f5f5f5" xlink:href="#B" transform="translate(-19 -22)"/><use fill="#f5f5f5" xlink:href="#C" transform="translate(-19 -22)"/><use fill="#f5f5f5" xlink:href="#D" transform="translate(-19 -22)"/><use fill="#f5f5f5" xlink:href="#E" transform="translate(-19 -22)"/><use fill="#f5f5f5" xlink:href="#F" transform="translate(-19 -22)"/><use fill="#f5f5f5" xlink:href="#G" transform="translate(-19 -22)"/><use fill="#f5f5f5" xlink:href="#H" transform="translate(-19 -22)"/><use fill="#f5f5f5" xlink:href="#I" transform="translate(-19 -22)"/><use fill="#f5f5f5" xlink:href="#J" transform="translate(-19 -22)"/><use fill="#f5f5f5" xlink:href="#K" transform="translate(-19 -22)"/><use fill="#f5f5f5" xlink:href="#L" transform="translate(-19 -22)"/><use fill="#f5f5f5" xlink:href="#M" transform="translate(-19 -22)"/><use fill="#f5f5f5" xlink:href="#N" transform="translate(-19 -22)"/><use fill="#f5f5f5" xlink:href="#O" transform="translate(-19 -22)"/><use fill="#f5f5f5" xlink:href="#P" transform="translate(-19 -22)"/><use fill="#f5f5f5" xlink:href="#Q" transform="translate(-19 -22)"/><use fill="#f5f5f5" xlink:href="#R" transform="translate(-19 -22)"/><use fill="#f5f5f5" xlink:href="#S" transform="translate(-19 -22)"/><use fill="#f5f5f5" xlink:href="#T" transform="translate(-19 -22)"/><use fill="#f5f5f5" xlink:href="#U" transform="translate(-19 -22)"/><use fill="#f5f5f5" xlink:href="#V" transform="translate(-19 -22)"/><use fill="#f5f5f5" xlink:href="#W" transform="translate(-19 -22)"/><use fill="#f5f5f5" xlink:href="#X" transform="translate(-19 -22)"/></g></svg>