<svg version="1.0" xmlns="http://www.w3.org/2000/svg" width="346.667" height="346.667" viewBox="0 0 260 260"><path d="M37 39.7c-8.3 3-8.9 15.7-1 19.8 5.7 2.9 12.9.8 14.9-4.4 1.9-5.3 1.9-6 0-9.8-2.7-5.4-8.3-7.6-13.9-5.6zM64.8 40.7c-3.2 2-4.8 5.2-4.8 9.8C60 55.2 65.7 61 70.3 61c4.2 0 9.5-3.3 10.8-6.8 3.8-9.9-7.2-19.1-16.3-13.5zM95 40.7c-4.9 3.3-6.5 8-4.4 13.2 3.5 8.8 15.6 9.4 19.7 1 4.8-10-6.3-20.4-15.3-14.2zM124.8 40.6c-9.4 5.1-5.5 20.4 5.2 20.4 3.5 0 8.6-2.9 9.9-5.6 4.7-10.5-5.2-20.2-15.1-14.8zM152.3 42.5c-3.3 3.3-3.5 3.9-3 8.1.7 6.7 4.2 9.9 10.7 9.9 6.5 0 10-3.2 10.7-9.9.5-4.2.3-4.8-3-8.1-2.9-2.9-4.2-3.5-7.7-3.5s-4.8.6-7.7 3.5zM184.5 40.2c-3.5 1.9-5.5 5.2-5.5 9 0 4.9 1.6 8.1 5 10.1 11.8 7 23-9.8 12.2-18.3-2.7-2.2-8.5-2.6-11.7-.8zM213.3 40.9c-6.6 4.1-6.5 14 .2 18.1 3.9 2.4 6.6 2.5 11 .5 3.7-1.8 5.8-5.2 5.8-9.5 0-8.9-9.2-13.8-17-9.1zM38 74.2c-3.8 1.4-6.9 4.8-7.6 8.3-1.9 10.2 10.1 17.5 17.7 10.7 4.2-3.8 5.2-8.6 2.6-13.4-1.1-2-2.7-4-3.6-4.4-4.2-1.7-6.8-2-9.1-1.2zM96.2 75c-4.7 2.1-6.3 4.6-6.4 10 0 3.8 2.4 8.4 5.1 9.5 6.6 2.7 12.8.7 15.5-4.9C115 80 105.9 70.7 96.2 75zM6.3 75C3 76.3.6 80.7.7 85.2c.2 7.9 9 13 15.9 9.3 3.6-1.9 6.5-6.9 5.9-10-.2-1.1-.4-2.6-.4-3.3-.1-.8-1.4-2.7-3-4.3C16 73.8 11 73.1 6.3 75zM65.4 75.1c-3 1.5-5.4 6.1-5.4 10.4 0 3 .7 4.4 3.3 6.9 4.2 3.9 8.8 4.4 13.5 1.6 6.2-3.8 6.8-12.2 1.2-17.3-3.2-2.9-8.5-3.5-12.6-1.6zM123.2 76.8c-3.9 3.7-4.8 8.1-2.6 12.7 3.9 8.2 14.9 8.6 19 .7 2.6-5 2-9.4-1.7-13.2-4.2-4.1-10.4-4.2-14.7-.2zM152.3 77.5c-3.3 3.3-3.5 3.9-3 8.2.7 6.8 4.8 10.3 11.3 9.9 4-.2 5.2-.8 7.6-3.6 4.1-5 3.9-10.1-.6-14.6-2.8-2.8-4.2-3.4-7.6-3.4-3.5 0-4.8.6-7.7 3.5zM184.2 75.3c-9.7 5.5-5.4 20.7 6 20.7 3.8 0 8.5-3.5 9.8-7.4 3.2-9.7-6.9-18.2-15.8-13.3zM213.2 75.6c-9.5 6.6-3.6 21.8 7.7 19.9 7.1-1.2 10.4-6.5 8.8-14.4-1.2-5.7-11.3-9.1-16.5-5.5zM241.8 76.9c-2.9 2.6-3.3 3.5-3.3 8.1 0 4.4.4 5.5 2.8 7.6 5.3 4.6 10.9 4.4 15.8-.6 2.1-2.1 2.9-3.8 2.9-6.5 0-10.2-10.8-15.3-18.2-8.6zM34.1 111.6c-5.9 5.4-4.8 14.4 2.1 17.9 4.7 2.3 10.1 1.2 13.4-2.8 2.2-2.7 2.5-3.8 2.1-8-.6-6.4-3-8.8-9.5-9.5-4.4-.4-5.3-.1-8.1 2.4zM65.4 110.1c-4.8 2.4-7 11.2-3.8 15.7 6.8 9.7 22.2 3.5 20-8.1-1.3-6.9-9.6-10.8-16.2-7.6zM93.7 111c-10 7.9 0 24 11.6 18.5 7.5-3.5 8.4-14.1 1.6-18.9-3.3-2.3-10-2.1-13.2.4zM123.1 111.6c-5.1 4.2-5.3 11.1-.6 15.9 7.2 7.1 18.5 2.2 18.5-8 0-9.3-10.7-14-17.9-7.9zM154.4 110.1c-5.9 2.9-7 13.2-1.9 17.6 7.3 6.3 17.2 2.6 18.2-6.8.5-4.1.2-5-2.7-8.2-2.8-3.2-3.8-3.7-7.4-3.6-2.2 0-5 .5-6.2 1zM182.1 112.1c-2.6 2.5-3.1 3.8-3.1 7.8 0 3.9.5 5.2 2.8 7.5 5.9 5.5 14.9 4 17.9-3.1 3.2-7.8-1.8-15.3-10.2-15.3-3.5 0-4.9.6-7.4 3.1zM213.2 110.6c-6.8 4.8-6.1 15.3 1.3 18.8 4.1 2 5.9 2 10 0 6.8-3.2 7.8-13.7 1.8-18.4-3.1-2.4-9.9-2.7-13.1-.4zM66.3 144.7c-7.4 3.5-8.4 14.6-1.7 18.9 9.9 6.6 21.7-4.5 15.7-14.7-1.8-3-2.9-3.7-8-4.9-2-.5-4.1-.3-6 .7zM97.6 144.1c-12 3.3-9.7 21.4 2.8 21.4 8.7 0 13.8-8.6 9.7-16.3-2.2-4.2-7.7-6.4-12.5-5.1zM127.4 144.1c-8.2 2.2-10.8 12.2-4.8 18.2 7 7 18.4 2.2 18.4-7.8 0-7.3-6.5-12.2-13.6-10.4zM187.8 143.8c-1.5.2-4.1 1.6-5.8 3.2-2.5 2.3-3 3.6-3 7.3 0 8.6 7.7 13.8 15.2 10.3 4-1.9 5.6-4.2 6.4-9.4.5-3.2.2-4.3-2-6.9-2.9-3.4-6.7-5-10.8-4.5zM155 144.6c-2.3.7-6 6.7-6 9.8 0 5.9 5.4 11.6 11 11.6 8.2 0 13.6-9.8 9.3-17-2.5-4.3-8.2-6-14.3-4.4zM95.2 180c-3.8 2.3-5.4 5.2-5.4 9.6 0 4.5 2.5 8.2 6.9 10 10.1 4.3 19-6.8 12.8-16.2-3-4.7-9.6-6.2-14.3-3.4zM125.6 179.8c-4.3 1.7-7 6.7-6.1 11.5.7 3.7 4.7 8.6 7 8.8.8.1 2.5.2 3.8.3 2.9.3 7.2-1.9 9.1-4.6.9-1.2 1.6-4.2 1.6-6.6 0-7.8-7.7-12.5-15.4-9.4zM158 178.7c-5.8 1.8-9 5.6-9 10.8 0 4.2 2.8 8.5 6.6 10.1 9.7 4.1 18.8-6 14-15.4-1.9-3.8-8.1-6.7-11.6-5.5zM127.5 213.9c-8.3 2.4-10.9 12.2-4.9 18.1 7.3 7.2 18.4 2.5 18.4-7.7 0-3.6-.6-5-2.9-7.4-1.6-1.6-3.5-2.9-4.3-3-.7 0-2-.2-2.8-.3-.8-.2-2.4 0-3.5.3z"/></svg>