<svg xmlns="http://www.w3.org/2000/svg" xmlns:xlink="http://www.w3.org/1999/xlink" width="24" height="16" viewBox="0 0 24 16"><defs><path id="ebh5a" d="M41.2 22.01H20.8c-1 0-1.8.82-1.8 1.83v12.32c0 1 .8 1.82 1.8 1.82h20.4c1 0 1.8-.81 1.8-1.82V23.84c0-1.01-.8-1.83-1.8-1.83z"/><path id="ebh5b" d="M19.1 23.24h23.8A1.8 1.8 0 0 0 41.2 22H20.8a1.8 1.8 0 0 0-1.7 1.23z"/><path id="ebh5c" d="M19 28.16v-1.23h24v1.23z"/><path id="ebh5d" d="M19 25.7v-1.23h24v1.23z"/><path id="ebh5e" d="M19 30.2c0 .23.19.42.41.42H43v-1.23H19z"/><path id="ebh5f" d="M19 35.53V34.3h24v1.23z"/><path id="ebh5g" d="M42.9 36.76H19.1a1.8 1.8 0 0 0 1.7 1.23h20.4a1.8 1.8 0 0 0 1.7-1.23z"/><path id="ebh5h" d="M19 33.07v-1.23h24v1.23z"/><path id="ebh5i" d="M19.41 30.61h10.35c.23 0 .41-.19.41-.42v-7.76a.42.42 0 0 0-.41-.42H20.8c-1 0-1.8.82-1.8 1.83v6.35c0 .23.19.42.41.42z"/><path id="ebh5j" d="M20.16 22.98l.1.28h.29c.03 0 .05.05.02.07l-.24.17.1.29c0 .03-.04.06-.07.04l-.23-.17-.24.17c-.03.02-.07 0-.06-.04l.09-.29-.23-.17c-.03-.02-.02-.07.02-.07H20l.09-.28a.04.04 0 0 1 .07 0z"/><path id="ebh5k" d="M20.16 24.44l.1.28h.29c.03 0 .05.05.02.07l-.24.17.1.29c0 .03-.04.06-.07.04l-.23-.17-.24.17c-.03.02-.07 0-.06-.04l.09-.29-.23-.17c-.03-.02-.02-.07.02-.07H20l.09-.28a.04.04 0 0 1 .07 0z"/><path id="ebh5l" d="M20.16 25.9l.1.28h.29c.03 0 .05.05.02.07l-.24.17.1.29c0 .03-.04.06-.07.04l-.23-.17-.24.17c-.03.02-.07 0-.06-.04l.09-.29-.23-.17c-.03-.02-.02-.07.02-.07H20l.09-.28a.04.04 0 0 1 .07 0z"/><path id="ebh5m" d="M20.16 27.36l.1.28h.29c.03 0 .05.05.02.07l-.24.17.1.29c0 .03-.04.06-.07.04l-.23-.17-.24.17c-.03.02-.07 0-.06-.04l.09-.29-.23-.17c-.03-.02-.02-.07.02-.07H20l.09-.28a.04.04 0 0 1 .07 0z"/><path id="ebh5n" d="M20.16 28.82l.1.28h.29c.03 0 .05.05.02.07l-.24.17.1.29c0 .03-.04.06-.07.04l-.23-.17-.24.17c-.03.02-.07 0-.06-.04l.09-.29-.23-.17c-.03-.02-.02-.07.02-.07H20l.09-.28a.04.04 0 0 1 .07 0z"/><path id="ebh5o" d="M21.27 23.7l.1.28h.29c.03 0 .05.05.02.07l-.24.17.1.29c0 .03-.04.06-.07.04l-.23-.17-.24.17c-.03.02-.07 0-.06-.04l.09-.29-.23-.17c-.03-.02-.02-.07.02-.07h.29l.09-.28a.04.04 0 0 1 .07 0z"/><path id="ebh5p" d="M21.27 25.16l.1.28h.29c.03 0 .05.05.02.07l-.24.17.1.29c0 .03-.04.06-.07.04l-.23-.17L21 26c-.03.02-.07 0-.06-.04l.09-.29-.23-.17c-.03-.02-.02-.07.02-.07h.29l.09-.28a.04.04 0 0 1 .07 0z"/><path id="ebh5q" d="M21.27 26.62l.1.28h.29c.03 0 .05.05.02.07l-.24.17.1.29c0 .03-.04.06-.07.04l-.23-.17-.24.17c-.03.02-.07 0-.06-.04l.09-.29-.23-.17c-.03-.02-.02-.07.02-.07h.29l.09-.28a.04.04 0 0 1 .07 0z"/><path id="ebh5r" d="M21.27 28.08l.1.28h.29c.03 0 .05.05.02.07l-.24.17.1.29c0 .03-.04.06-.07.04l-.23-.17-.24.17c-.03.02-.07 0-.06-.04l.09-.29-.23-.17c-.03-.02-.02-.07.02-.07h.29l.09-.28a.04.04 0 0 1 .07 0z"/><path id="ebh5s" d="M22.4 22.98l.09.28h.29c.03 0 .05.05.02.07l-.24.17.1.29c0 .03-.04.06-.07.04l-.23-.17-.24.17c-.03.02-.07 0-.06-.04l.09-.29-.23-.17c-.03-.02-.02-.07.02-.07h.29l.09-.28a.04.04 0 0 1 .07 0z"/><path id="ebh5t" d="M22.4 24.44l.09.28h.29c.03 0 .05.05.02.07l-.24.17.1.29c0 .03-.04.06-.07.04l-.23-.17-.24.17c-.03.02-.07 0-.06-.04l.09-.29-.23-.17c-.03-.02-.02-.07.02-.07h.29l.09-.28a.04.04 0 0 1 .07 0z"/><path id="ebh5u" d="M22.4 25.9l.09.28h.29c.03 0 .05.05.02.07l-.24.17.1.29c0 .03-.04.06-.07.04l-.23-.17-.24.17c-.03.02-.07 0-.06-.04l.09-.29-.23-.17c-.03-.02-.02-.07.02-.07h.29l.09-.28a.04.04 0 0 1 .07 0z"/><path id="ebh5v" d="M22.4 27.36l.09.28h.29c.03 0 .05.05.02.07l-.24.17.1.29c0 .03-.04.06-.07.04l-.23-.17-.24.17c-.03.02-.07 0-.06-.04l.09-.29-.23-.17c-.03-.02-.02-.07.02-.07h.29l.09-.28a.04.04 0 0 1 .07 0z"/><path id="ebh5w" d="M22.4 28.82l.09.28h.29c.03 0 .05.05.02.07l-.24.17.1.29c0 .03-.04.06-.07.04l-.23-.17-.24.17c-.03.02-.07 0-.06-.04l.09-.29-.23-.17c-.03-.02-.02-.07.02-.07h.29l.09-.28a.04.04 0 0 1 .07 0z"/><path id="ebh5x" d="M23.5 23.7l.1.28h.29c.03 0 .05.05.02.07l-.24.17.1.29c0 .03-.04.06-.07.04l-.23-.17-.24.17c-.03.02-.07 0-.06-.04l.09-.29-.23-.17c-.03-.02-.02-.07.02-.07h.29l.09-.28a.04.04 0 0 1 .07 0z"/><path id="ebh5y" d="M23.5 25.16l.1.28h.29c.03 0 .05.05.02.07l-.24.17.1.29c0 .03-.04.06-.07.04l-.23-.17-.24.17c-.03.02-.07 0-.06-.04l.09-.29-.23-.17c-.03-.02-.02-.07.02-.07h.29l.09-.28a.04.04 0 0 1 .07 0z"/><path id="ebh5z" d="M23.5 26.62l.1.28h.29c.03 0 .05.05.02.07l-.24.17.1.29c0 .03-.04.06-.07.04l-.23-.17-.24.17c-.03.02-.07 0-.06-.04l.09-.29-.23-.17c-.03-.02-.02-.07.02-.07h.29l.09-.28a.04.04 0 0 1 .07 0z"/><path id="ebh5A" d="M23.5 28.08l.1.28h.29c.03 0 .05.05.02.07l-.24.17.1.29c0 .03-.04.06-.07.04l-.23-.17-.24.17c-.03.02-.07 0-.06-.04l.09-.29-.23-.17c-.03-.02-.02-.07.02-.07h.29l.09-.28a.04.04 0 0 1 .07 0z"/><path id="ebh5B" d="M24.62 22.98l.1.28H25c.03 0 .05.05.02.07l-.23.17.08.29c.01.03-.03.06-.06.04l-.23-.17-.24.17c-.03.02-.07 0-.06-.04l.09-.29-.23-.17c-.03-.02-.02-.07.02-.07h.29l.09-.28a.04.04 0 0 1 .07 0z"/><path id="ebh5C" d="M24.62 24.44l.1.28H25c.03 0 .05.05.02.07l-.23.17.08.29c.01.03-.03.06-.06.04l-.23-.17-.24.17c-.03.02-.07 0-.06-.04l.09-.29-.23-.17c-.03-.02-.02-.07.02-.07h.29l.09-.28a.04.04 0 0 1 .07 0z"/><path id="ebh5D" d="M24.62 25.9l.1.28H25c.03 0 .05.05.02.07l-.23.17.08.29c.01.03-.03.06-.06.04l-.23-.17-.24.17c-.03.02-.07 0-.06-.04l.09-.29-.23-.17c-.03-.02-.02-.07.02-.07h.29l.09-.28a.04.04 0 0 1 .07 0z"/><path id="ebh5E" d="M24.62 27.36l.1.28H25c.03 0 .05.05.02.07l-.23.17.08.29c.01.03-.03.06-.06.04l-.23-.17-.24.17c-.03.02-.07 0-.06-.04l.09-.29-.23-.17c-.03-.02-.02-.07.02-.07h.29l.09-.28a.04.04 0 0 1 .07 0z"/><path id="ebh5F" d="M24.62 28.82l.1.28H25c.03 0 .05.05.02.07l-.23.17.08.29c.01.03-.03.06-.06.04l-.23-.17-.24.17c-.03.02-.07 0-.06-.04l.09-.29-.23-.17c-.03-.02-.02-.07.02-.07h.29l.09-.28a.04.04 0 0 1 .07 0z"/><path id="ebh5G" d="M25.73 23.7l.1.28h.29c.03 0 .05.05.02.07l-.24.17.1.29c0 .03-.04.06-.07.04l-.23-.17-.24.17c-.03.02-.07 0-.06-.04l.09-.29-.23-.17c-.03-.02-.02-.07.02-.07h.29l.09-.28a.04.04 0 0 1 .07 0z"/><path id="ebh5H" d="M25.73 25.16l.1.28h.29c.03 0 .05.05.02.07l-.24.17.1.29c0 .03-.04.06-.07.04l-.23-.17-.24.17c-.03.02-.07 0-.06-.04l.09-.29-.23-.17c-.03-.02-.02-.07.02-.07h.29l.09-.28a.04.04 0 0 1 .07 0z"/><path id="ebh5I" d="M25.73 26.62l.1.28h.29c.03 0 .05.05.02.07l-.24.17.1.29c0 .03-.04.06-.07.04l-.23-.17-.24.17c-.03.02-.07 0-.06-.04l.09-.29-.23-.17c-.03-.02-.02-.07.02-.07h.29l.09-.28a.04.04 0 0 1 .07 0z"/><path id="ebh5J" d="M25.73 28.08l.1.28h.29c.03 0 .05.05.02.07l-.24.17.1.29c0 .03-.04.06-.07.04l-.23-.17-.24.17c-.03.02-.07 0-.06-.04l.09-.29-.23-.17c-.03-.02-.02-.07.02-.07h.29l.09-.28a.04.04 0 0 1 .07 0z"/><path id="ebh5K" d="M26.85 22.98l.1.28h.29c.03 0 .05.05.02.07l-.24.17.1.29c0 .03-.04.06-.07.04l-.23-.17-.24.17c-.03.02-.07 0-.06-.04l.09-.29-.23-.17c-.03-.02-.02-.07.02-.07h.29l.09-.28a.04.04 0 0 1 .07 0z"/><path id="ebh5L" d="M26.85 24.44l.1.28h.29c.03 0 .05.05.02.07l-.24.17.1.29c0 .03-.04.06-.07.04l-.23-.17-.24.17c-.03.02-.07 0-.06-.04l.09-.29-.23-.17c-.03-.02-.02-.07.02-.07h.29l.09-.28a.04.04 0 0 1 .07 0z"/><path id="ebh5M" d="M26.85 25.9l.1.28h.29c.03 0 .05.05.02.07l-.24.17.1.29c0 .03-.04.06-.07.04l-.23-.17-.24.17c-.03.02-.07 0-.06-.04l.09-.29-.23-.17c-.03-.02-.02-.07.02-.07h.29l.09-.28a.04.04 0 0 1 .07 0z"/><path id="ebh5N" d="M26.85 27.36l.1.28h.29c.03 0 .05.05.02.07l-.24.17.1.29c0 .03-.04.06-.07.04l-.23-.17-.24.17c-.03.02-.07 0-.06-.04l.09-.29-.23-.17c-.03-.02-.02-.07.02-.07h.29l.09-.28a.04.04 0 0 1 .07 0z"/><path id="ebh5O" d="M26.85 28.82l.1.28h.29c.03 0 .05.05.02.07l-.24.17.1.29c0 .03-.04.06-.07.04l-.23-.17-.24.17c-.03.02-.07 0-.06-.04l.09-.29-.23-.17c-.03-.02-.02-.07.02-.07h.29l.09-.28a.04.04 0 0 1 .07 0z"/><path id="ebh5P" d="M27.97 23.7l.1.28h.29c.03 0 .05.05.02.07l-.24.17.1.29c0 .03-.04.06-.07.04l-.23-.17-.24.17c-.03.02-.07 0-.06-.04l.09-.29-.23-.17c-.03-.02-.02-.07.02-.07h.29l.09-.28a.04.04 0 0 1 .07 0z"/><path id="ebh5Q" d="M27.97 25.16l.1.28h.29c.03 0 .05.05.02.07l-.24.17.1.29c0 .03-.04.06-.07.04l-.23-.17-.24.17c-.03.02-.07 0-.06-.04l.09-.29-.23-.17c-.03-.02-.02-.07.02-.07h.29l.09-.28a.04.04 0 0 1 .07 0z"/><path id="ebh5R" d="M27.97 26.62l.1.28h.29c.03 0 .05.05.02.07l-.24.17.1.29c0 .03-.04.06-.07.04l-.23-.17-.24.17c-.03.02-.07 0-.06-.04l.09-.29-.23-.17c-.03-.02-.02-.07.02-.07h.29l.09-.28a.04.04 0 0 1 .07 0z"/><path id="ebh5S" d="M27.97 28.08l.1.28h.29c.03 0 .05.05.02.07l-.24.17.1.29c0 .03-.04.06-.07.04l-.23-.17-.24.17c-.03.02-.07 0-.06-.04l.09-.29-.23-.17c-.03-.02-.02-.07.02-.07h.29l.09-.28a.04.04 0 0 1 .07 0z"/><path id="ebh5T" d="M29.08 22.98l.1.28h.29c.03 0 .05.05.02.07l-.24.17.1.29c0 .03-.04.06-.07.04l-.23-.17-.24.17c-.03.02-.07 0-.06-.04l.09-.29-.23-.17c-.03-.02-.02-.07.02-.07h.29l.09-.28a.04.04 0 0 1 .07 0z"/><path id="ebh5U" d="M29.08 24.44l.1.28h.29c.03 0 .05.05.02.07l-.24.17.1.29c0 .03-.04.06-.07.04l-.23-.17-.24.17c-.03.02-.07 0-.06-.04l.09-.29-.23-.17c-.03-.02-.02-.07.02-.07h.29l.09-.28a.04.04 0 0 1 .07 0z"/><path id="ebh5V" d="M29.08 25.9l.1.28h.29c.03 0 .05.05.02.07l-.24.17.1.29c0 .03-.04.06-.07.04l-.23-.17-.24.17c-.03.02-.07 0-.06-.04l.09-.29-.23-.17c-.03-.02-.02-.07.02-.07h.29l.09-.28a.04.04 0 0 1 .07 0z"/><path id="ebh5W" d="M29.08 27.36l.1.28h.29c.03 0 .05.05.02.07l-.24.17.1.29c0 .03-.04.06-.07.04l-.23-.17-.24.17c-.03.02-.07 0-.06-.04l.09-.29-.23-.17c-.03-.02-.02-.07.02-.07h.29l.09-.28a.04.04 0 0 1 .07 0z"/><path id="ebh5X" d="M29.08 28.82l.1.28h.29c.03 0 .05.05.02.07l-.24.17.1.29c0 .03-.04.06-.07.04l-.23-.17-.24.17c-.03.02-.07 0-.06-.04l.09-.29-.23-.17c-.03-.02-.02-.07.02-.07h.29l.09-.28a.04.04 0 0 1 .07 0z"/></defs><g><g transform="translate(-19 -22)"><g><use fill="#f5f5f5" xlink:href="#ebh5a"/></g><g><g><use fill="#ff4b55" xlink:href="#ebh5b"/></g><g><use fill="#ff4b55" xlink:href="#ebh5c"/></g><g><use fill="#ff4b55" xlink:href="#ebh5d"/></g><g><use fill="#ff4b55" xlink:href="#ebh5e"/></g><g><use fill="#ff4b55" xlink:href="#ebh5f"/></g><g><use fill="#ff4b55" xlink:href="#ebh5g"/></g><g><use fill="#ff4b55" xlink:href="#ebh5h"/></g></g><g><use fill="#41479b" xlink:href="#ebh5i"/></g><g><g><use fill="#f5f5f5" xlink:href="#ebh5j"/></g><g><use fill="#f5f5f5" xlink:href="#ebh5k"/></g><g><use fill="#f5f5f5" xlink:href="#ebh5l"/></g><g><use fill="#f5f5f5" xlink:href="#ebh5m"/></g><g><use fill="#f5f5f5" xlink:href="#ebh5n"/></g><g><use fill="#f5f5f5" xlink:href="#ebh5o"/></g><g><use fill="#f5f5f5" xlink:href="#ebh5p"/></g><g><use fill="#f5f5f5" xlink:href="#ebh5q"/></g><g><use fill="#f5f5f5" xlink:href="#ebh5r"/></g><g><use fill="#f5f5f5" xlink:href="#ebh5s"/></g><g><use fill="#f5f5f5" xlink:href="#ebh5t"/></g><g><use fill="#f5f5f5" xlink:href="#ebh5u"/></g><g><use fill="#f5f5f5" xlink:href="#ebh5v"/></g><g><use fill="#f5f5f5" xlink:href="#ebh5w"/></g><g><use fill="#f5f5f5" xlink:href="#ebh5x"/></g><g><use fill="#f5f5f5" xlink:href="#ebh5y"/></g><g><use fill="#f5f5f5" xlink:href="#ebh5z"/></g><g><use fill="#f5f5f5" xlink:href="#ebh5A"/></g><g><use fill="#f5f5f5" xlink:href="#ebh5B"/></g><g><use fill="#f5f5f5" xlink:href="#ebh5C"/></g><g><use fill="#f5f5f5" xlink:href="#ebh5D"/></g><g><use fill="#f5f5f5" xlink:href="#ebh5E"/></g><g><use fill="#f5f5f5" xlink:href="#ebh5F"/></g><g><use fill="#f5f5f5" xlink:href="#ebh5G"/></g><g><use fill="#f5f5f5" xlink:href="#ebh5H"/></g><g><use fill="#f5f5f5" xlink:href="#ebh5I"/></g><g><use fill="#f5f5f5" xlink:href="#ebh5J"/></g><g><use fill="#f5f5f5" xlink:href="#ebh5K"/></g><g><use fill="#f5f5f5" xlink:href="#ebh5L"/></g><g><use fill="#f5f5f5" xlink:href="#ebh5M"/></g><g><use fill="#f5f5f5" xlink:href="#ebh5N"/></g><g><use fill="#f5f5f5" xlink:href="#ebh5O"/></g><g><use fill="#f5f5f5" xlink:href="#ebh5P"/></g><g><use fill="#f5f5f5" xlink:href="#ebh5Q"/></g><g><use fill="#f5f5f5" xlink:href="#ebh5R"/></g><g><use fill="#f5f5f5" xlink:href="#ebh5S"/></g><g><use fill="#f5f5f5" xlink:href="#ebh5T"/></g><g><use fill="#f5f5f5" xlink:href="#ebh5U"/></g><g><use fill="#f5f5f5" xlink:href="#ebh5V"/></g><g><use fill="#f5f5f5" xlink:href="#ebh5W"/></g><g><use fill="#f5f5f5" xlink:href="#ebh5X"/></g></g></g></g></svg>