<svg xmlns="http://www.w3.org/2000/svg" xmlns:xlink="http://www.w3.org/1999/xlink" width="31" height="20" viewBox="0 0 31 20"><defs><path id="rf78a" d="M775.01 332.98h-28.96a.52.52 0 0 1-.52-.52v-4.73h30v4.73c0 .29-.23.52-.52.52z"/><path id="rf78b" d="M775.01 313.02h-28.96a.52.52 0 0 0-.52.53v14.18h30v-14.18a.52.52 0 0 0-.52-.53z"/><path id="rf78c" d="M749.67 332.99h-3.62a.52.52 0 0 1-.52-.53v-18.91c0-.3.23-.53.52-.53h3.62z"/><path id="rf78d" d="M748.41 313.54v.44h.19v.43h.18v.44h.18v.43h.18v.44h-.18v.44h-.18v.43h-.18v.44h-.19v.44h-.18v-.44h-.18v-.44h-.18v-.43h-.19v-.44h-.18v.44h-.18v.43h-.18v.44h-.19v.44h-.18v-.44h-.18v-.44h-.18v-.43h-.19v-.44h-.18v-.44h.18v-.43h.19v-.44h.18v-.43h.18v-.44h.18v.44h.19v.43h.18v.44h.18v.43h.18v-.43h.19v-.44h.18v-.43h.18v-.44zm-.54 1.74v.44h.18v.44h.19v.43h.18v-.43h.18v-.44h.18v-.44h-.18v-.43h-.18v-.44h-.18v.44h-.19v.43zm-1.46.44h.18v.44h.18v.43h.18v-.43h.18v-.44h.18v-.44h-.18v-.43h-.18v-.44h-.18v.44h-.18v.43h-.18zm2.56-1.83h.17v.52h-.17zm-1.47 0h.18v.52h-.18zm-1.46 0h.17v.52h-.17zm2.2 1.4h.17v.43h-.17zm-1.47 0h.17v.43h-.17zm2.2 1.13h.17v.52h-.17zm-1.47 0h.18v.52h-.18zm-1.46 0h.17v.52h-.17zm2.92.7v.26h.1v.26h.08v.35h-.09v.26h-.09v.27h-.27v-.27h-.09V318h-.09v-.35h.1v-.26h.08v-.27zm-.27.78h.1v.17h.09v-.17h.09v-.18h-.1v-.17h-.09v.17h-.09zm-1.46-.78h.27v.25h.18v-.25h.27v.25h.1v.27h.09v.35h-.1v.26h-.09v.26h-.27v-.26h-.18v.26h-.27v-.26h-.1v-.26h-.08v-.35h.09v-.27h.09zm.46.79h.1v.18h.08v-.18h.1v-.18h-.1v-.18h-.09v.18h-.1zm-.46 0h.09v.18h.09v-.18h.08v-.18h-.08v-.18h-.1v.18h-.08zm-1-.8h.26v.26h.1v.27h.08v.35h-.09v.26h-.09v.26h-.27v-.26h-.09v-.26h-.09v-.35h.1v-.27h.08zm0 .62v.18h.08v.18h.1v-.18h.09v-.18h-.1v-.18h-.09v.18zm2 .43h.18v.44h.19v.43h.18v.44h.18v.43h.18v.44h-.18v.44h-.18v.43h-.18v.44h-.19v-.44h-.18v-.43h-.18v-.44h.18v-.52h-.18v.35h-.18v.7h-.1v.43h.28v.35h.18v.26h.18v.44h.19v-.44h.18v-.26h.18v-.26h.18v.78h-.18v.35h-.18v.3h-.18v.35h.18v.31h.18v.35h.18v.78h-.18v-.26h-.18v-.26h-.18v-.44h-.19v.44h-.18v.26h-.18v.35h-.27v.43h.09v.7h.18v.35h.18v-.52h-.18v-.44h.18v-.43h.18v-.44h.19v.44h.18v.43h.18v.44h.18v.43h-.18v.44h-.18v.43h-.18v.44h-.19v.44h-.18v-.44h-.18v-.44h-.18v-.43h-.19v-.44h-.18v.44h-.18v.43h-.18v.44h-.19v.44h-.18v-.44h-.18v-.44h-.18v-.43h-.19v-.44h-.18v-.43h.18v-.44h.18v-.43h.19v-.44h.18v.44h.18v.43h.19v.44h-.19v.52h.19v-.35h.18v-.7h.09v-.43h-.27v-.35h-.19v-.26h-.18v-.44h-.18v.44h-.19v.26h-.18v.26h-.18v-.78h.18v-.35h.18v-.3h.19v-.36h-.19v-.3h-.18v-.35h-.18v-.78h.18v.26h.19v.26h.18v.43h.18v-.43h.18v-.26h.19v-.35h.27v-.43h-.1v-.7h-.17v-.35h-.19v.52h.19v.44h-.19v.43h-.18v.44h-.18v-.44h-.19v-.43h-.18v-.44h-.18v-.44h.18v-.43h.18v-.44h.19v-.43h.18v-.44h.18v.44h.19v.43h.18v.44h.18v.43h.18v-.43h.19v-.44h.18v-.43h.18zm-1.46 5.01h.18v.31h.19v.35h.27v.41h.09v.2h.18v-.2h.1v-.41h.27v-.35h.18v-.3h.18v-.36h-.18v-.3h-.18v-.35h-.28v-.41h-.09v-.2h-.18v.2h-.09v.41h-.27v.35h-.19v.3h-.18zm2.2-4.49h.17v.54h-.17zm-1.47 0h.18v.54h-.18zm-1.46 0h.17v.54h-.17zm2.93 2.19h.17v.33h-.17zm-2.93 0h.17v.33h-.17zm1.46 1.21h.18v.45h-.18zm.27.35h.18v.26h-.09v.13h-.09v.35h.1v.13h.08v.26h-.18v-.17h-.09v-.13h-.18v.13h-.09v.17h-.18v-.26h.09v-.13h.1v-.35h-.1v-.13h-.09v-.26h.18v.18h.1v.13h.17v-.13h.1zm1.37.3v.53h-.17v-.52zm-1 0v.53h-.18v-.52zm-.9 0v.53h-.2v-.52zm-1.03 0v.53h-.17v-.52zm1.3.75h.17v.45h-.18zm1.46 1.3h.17v.34h-.17zm-2.93 0h.17v.34h-.17zm2.93 2.01h.17v.52h-.17zm-1.47 0h.18v.52h-.18zm-1.46 0h.17v.52h-.17zm1.64.7h.27v.26h.1v.26h.09v.35h-.1v.26h-.09v.26h-.27v-.26h-.18v.26h-.27v-.26h-.1v-.26h-.08v-.35h.09v-.26h.09v-.26h.27v.26h.18zm0 .8h.1v.17h.1v-.18h.08v-.18h-.09v-.18h-.09v.18h-.1zm-.45 0h.09v.17h.09v-.18h.08v-.18h-.08v-.18h-.1v.18h-.08zm-1-.8h.26v.26h.1v.26h.08v.35h-.09v.26h-.09v.26h-.27v-.26h-.09v-.26h-.09v-.35h.1v-.26h.08zm0 .61v.18h.09v.18h.09v-.18h.09v-.18h-.1v-.18h-.08v.18zm2.73-.6v.25h.1v.26h.08v.35h-.09v.26h-.09v.26h-.27v-.26h-.09v-.26h-.09v-.35h.1v-.26h.08v-.26zm-.27.77h.1v.18h.09v-.18h.09v-.17h-.1v-.17h-.09v.17h-.09zm-.46.26h.18v.44h.19v.44h.18v.43h.18v.44h.18v.44h-.18v.44h-.18v.44h-.18v.43h-.19v.44h-.18v-.44h-.18v-.43h-.18v-.44h-.19v-.44h-.18v.44h-.18v.44h-.18v.43h-.19v.44h-.18v-.44h-.18v-.43h-.18v-.44h-.19v-.44h-.18v-.44h.18v-.44h.19v-.43h.18v-.44h.18v-.44h.18v.44h.19v.44h.18v.43h.18v.44h.18v-.44h.19v-.43h.18v-.44h.18zm-.36 1.75v.43h.18v.44h.19v.44h.18v-.44h.18v-.44h.18v-.43h-.18v-.44h-.18v-.43h-.18v.43h-.19v.44zm-1.46.43h.18v.44h.18v.44h.18v-.44h.18v-.44h.18v-.43h-.18v-.44h-.18v-.43h-.18v.43h-.18v.44h-.18zm2.56-1.65h.17v.52h-.17zm-1.47 0h.18v.52h-.18zm-1.46 0h.17v.52h-.17zm2.2 1.22h.17v.43h-.17zm-1.47 0h.17v.43h-.17zm2.2 1.3h.17v.53h-.17zm-1.47 0h.18v.53h-.18zm-1.46 0h.17v.53h-.17z"/></defs><g><g transform="translate(-745 -313)"><g><use fill="#73af00" xlink:href="#rf78a"/></g><g><use fill="#ff4b55" xlink:href="#rf78b"/></g><g><use fill="#f5f5f5" xlink:href="#rf78c"/></g><g><use fill="#ff4b55" xlink:href="#rf78d"/></g></g></g></svg>