<?xml version="1.0" standalone="no"?>
<!DOCTYPE svg PUBLIC "-//W3C//DTD SVG 20010904//EN"
 "http://www.w3.org/TR/2001/REC-SVG-20010904/DTD/svg10.dtd">
<svg version="1.0" xmlns="http://www.w3.org/2000/svg"
 width="260.000000pt" height="260.000000pt" viewBox="0 0 260.000000 260.000000"
 preserveAspectRatio="xMidYMid meet">
<metadata>
Created by potrace 1.11, written by Peter Selinger 2001-2013
</metadata>
<g transform="translate(0.000000,260.000000) scale(0.100000,-0.100000)"
fill="#000000" stroke="none">
<path d="M370 2203 c-83 -30 -89 -157 -10 -198 57 -29 129 -8 149 44 19 53 19
60 0 98 -27 54 -83 76 -139 56z"/>
<path d="M648 2193 c-32 -20 -48 -52 -48 -98 0 -47 57 -105 103 -105 42 0 95
33 108 68 38 99 -72 191 -163 135z"/>
<path d="M950 2193 c-49 -33 -65 -80 -44 -132 35 -88 156 -94 197 -10 48 100
-63 204 -153 142z"/>
<path d="M1248 2194 c-94 -51 -55 -204 52 -204 35 0 86 29 99 56 47 105 -52
202 -151 148z"/>
<path d="M1523 2175 c-33 -33 -35 -39 -30 -81 7 -67 42 -99 107 -99 65 0 100
32 107 99 5 42 3 48 -30 81 -29 29 -42 35 -77 35 -35 0 -48 -6 -77 -35z"/>
<path d="M1845 2198 c-35 -19 -55 -52 -55 -90 0 -49 16 -81 50 -101 118 -70
230 98 122 183 -27 22 -85 26 -117 8z"/>
<path d="M2133 2191 c-66 -41 -65 -140 2 -181 39 -24 66 -25 110 -5 37 18 58
52 58 95 0 89 -92 138 -170 91z"/>
<path d="M380 1858 c-38 -14 -69 -48 -76 -83 -19 -102 101 -175 177 -107 42
38 52 86 26 134 -11 20 -27 40 -36 44 -42 17 -68 20 -91 12z"/>
<path d="M962 1850 c-47 -21 -63 -46 -64 -100 0 -38 24 -84 51 -95 66 -27 128
-7 155 49 46 96 -45 189 -142 146z"/>
<path d="M63 1850 c-33 -13 -57 -57 -56 -102 2 -79 90 -130 159 -93 36 19 65
69 59 100 -2 11 -4 26 -4 33 -1 8 -14 27 -30 43 -31 31 -81 38 -128 19z"/>
<path d="M654 1849 c-30 -15 -54 -61 -54 -104 0 -30 7 -44 33 -69 42 -39 88
-44 135 -16 62 38 68 122 12 173 -32 29 -85 35 -126 16z"/>
<path d="M1232 1832 c-39 -37 -48 -81 -26 -127 39 -82 149 -86 190 -7 26 50
20 94 -17 132 -42 41 -104 42 -147 2z"/>
<path d="M1523 1825 c-33 -33 -35 -39 -30 -82 7 -68 48 -103 113 -99 40 2 52
8 76 36 41 50 39 101 -6 146 -28 28 -42 34 -76 34 -35 0 -48 -6 -77 -35z"/>
<path d="M1842 1847 c-97 -55 -54 -207 60 -207 38 0 85 35 98 74 32 97 -69
182 -158 133z"/>
<path d="M2132 1844 c-95 -66 -36 -218 77 -199 71 12 104 65 88 144 -12 57
-113 91 -165 55z"/>
<path d="M2418 1831 c-29 -26 -33 -35 -33 -81 0 -44 4 -55 28 -76 53 -46 109
-44 158 6 21 21 29 38 29 65 0 102 -108 153 -182 86z"/>
<path d="M341 1484 c-59 -54 -48 -144 21 -179 47 -23 101 -12 134 28 22 27 25
38 21 80 -6 64 -30 88 -95 95 -44 4 -53 1 -81 -24z"/>
<path d="M654 1499 c-48 -24 -70 -112 -38 -157 68 -97 222 -35 200 81 -13 69
-96 108 -162 76z"/>
<path d="M937 1490 c-100 -79 0 -240 116 -185 75 35 84 141 16 189 -33 23
-100 21 -132 -4z"/>
<path d="M1231 1484 c-51 -42 -53 -111 -6 -159 72 -71 185 -22 185 80 0 93
-107 140 -179 79z"/>
<path d="M1544 1499 c-59 -29 -70 -132 -19 -176 73 -63 172 -26 182 68 5 41 2
50 -27 82 -28 32 -38 37 -74 36 -22 0 -50 -5 -62 -10z"/>
<path d="M1821 1479 c-26 -25 -31 -38 -31 -78 0 -39 5 -52 28 -75 59 -55 149
-40 179 31 32 78 -18 153 -102 153 -35 0 -49 -6 -74 -31z"/>
<path d="M2132 1494 c-68 -48 -61 -153 13 -188 41 -20 59 -20 100 0 68 32 78
137 18 184 -31 24 -99 27 -131 4z"/>
<path d="M663 1153 c-74 -35 -84 -146 -17 -189 99 -66 217 45 157 147 -18 30
-29 37 -80 49 -20 5 -41 3 -60 -7z"/>
<path d="M976 1159 c-120 -33 -97 -214 28 -214 87 0 138 86 97 163 -22 42 -77
64 -125 51z"/>
<path d="M1274 1159 c-82 -22 -108 -122 -48 -182 70 -70 184 -22 184 78 0 73
-65 122 -136 104z"/>
<path d="M1878 1162 c-15 -2 -41 -16 -58 -32 -25 -23 -30 -36 -30 -73 0 -86
77 -138 152 -103 40 19 56 42 64 94 5 32 2 43 -20 69 -29 34 -67 50 -108 45z"/>
<path d="M1550 1154 c-23 -7 -60 -67 -60 -98 0 -59 54 -116 110 -116 82 0 136
98 93 170 -25 43 -82 60 -143 44z"/>
<path d="M952 800 c-38 -23 -54 -52 -54 -96 0 -45 25 -82 69 -100 101 -43 190
68 128 162 -30 47 -96 62 -143 34z"/>
<path d="M1256 802 c-43 -17 -70 -67 -61 -115 7 -37 47 -86 70 -88 8 -1 25 -2
38 -3 29 -3 72 19 91 46 9 12 16 42 16 66 0 78 -77 125 -154 94z"/>
<path d="M1580 813 c-58 -18 -90 -56 -90 -108 0 -42 28 -85 66 -101 97 -41
188 60 140 154 -19 38 -81 67 -116 55z"/>
<path d="M1275 461 c-83 -24 -109 -122 -49 -181 73 -72 184 -25 184 77 0 36
-6 50 -29 74 -16 16 -35 29 -43 30 -7 0 -20 2 -28 3 -8 2 -24 0 -35 -3z"/>
</g>
</svg>
