<svg xmlns="http://www.w3.org/2000/svg" viewBox="0 0 61.22 46.37"><path d="M7 2.58a2.58 2.58 0 1 1 2.59 2.58A2.57 2.57 0 0 1 7 2.58zm44.64 2.58a2.58 2.58 0 1 0-2.58-2.58 2.59 2.59 0 0 0 2.58 2.58zm-35 0A2.58 2.58 0 1 0 14 2.58a2.58 2.58 0 0 0 2.6 2.58zm7 0A2.58 2.58 0 1 0 21 2.58a2.58 2.58 0 0 0 2.6 2.58zm7 0A2.58 2.58 0 1 0 28 2.58a2.58 2.58 0 0 0 2.61 2.58zm7 0A2.58 2.58 0 1 0 35 2.58a2.59 2.59 0 0 0 2.62 2.58zm7 0a2.58 2.58 0 1 0-2.58-2.58 2.59 2.59 0 0 0 2.57 2.58zM7 10.82a2.58 2.58 0 1 1 2.59 2.58A2.58 2.58 0 0 1 7 10.82zM2.58 13.4A2.58 2.58 0 1 0 0 10.82a2.59 2.59 0 0 0 2.58 2.58zm49.06 0a2.58 2.58 0 1 0-2.58-2.58 2.59 2.59 0 0 0 2.58 2.58zm7 0a2.58 2.58 0 1 0-2.58-2.58 2.58 2.58 0 0 0 2.59 2.58zm-42 0A2.58 2.58 0 1 0 14 10.82a2.58 2.58 0 0 0 2.6 2.58zm7 0A2.58 2.58 0 1 0 21 10.82a2.58 2.58 0 0 0 2.6 2.58zm7 0A2.58 2.58 0 1 0 28 10.82a2.58 2.58 0 0 0 2.61 2.58zm7 0A2.58 2.58 0 1 0 35 10.82a2.59 2.59 0 0 0 2.62 2.58zm7 0a2.58 2.58 0 1 0-2.58-2.58 2.59 2.59 0 0 0 2.57 2.58zM7 19.06a2.58 2.58 0 1 1 2.58 2.58A2.58 2.58 0 0 1 7 19.06zm44.63 2.58a2.58 2.58 0 1 0-2.58-2.58 2.58 2.58 0 0 0 2.59 2.58zm-35 0A2.58 2.58 0 1 0 14 19.06a2.57 2.57 0 0 0 2.6 2.58zm7 0A2.58 2.58 0 1 0 21 19.06a2.57 2.57 0 0 0 2.6 2.58zm7 0A2.58 2.58 0 1 0 28 19.06a2.57 2.57 0 0 0 2.61 2.58zm7 0A2.58 2.58 0 1 0 35 19.06a2.58 2.58 0 0 0 2.62 2.58zm7 0a2.58 2.58 0 1 0-2.58-2.58 2.58 2.58 0 0 0 2.58 2.58zM16.6 29.88A2.58 2.58 0 1 0 14 27.3a2.57 2.57 0 0 0 2.6 2.58zm7 0A2.58 2.58 0 1 0 21 27.3a2.57 2.57 0 0 0 2.6 2.58zm7 0A2.58 2.58 0 1 0 28 27.3a2.57 2.57 0 0 0 2.61 2.58zm7 0A2.58 2.58 0 1 0 35 27.3a2.58 2.58 0 0 0 2.62 2.58zm7 0a2.58 2.58 0 1 0-2.58-2.58 2.58 2.58 0 0 0 2.61 2.58zM23.6 38.13a2.58 2.58 0 1 0-2.6-2.58 2.58 2.58 0 0 0 2.6 2.58zm7 0a2.58 2.58 0 1 0-2.6-2.58 2.58 2.58 0 0 0 2.61 2.58zm7 0a2.58 2.58 0 1 0-2.6-2.58 2.59 2.59 0 0 0 2.62 2.58zM30.61 46.37A2.58 2.58 0 1 0 28 43.79a2.58 2.58 0 0 0 2.61 2.58z" style="fill:#fff"/></svg>